<?xml version="1.0" encoding="UTF-8"?>
<svg xmlns="http://www.w3.org/2000/svg" id="Layer_1" data-name="Layer 1" viewBox="0 0 24 24">
  <path d="m21,22.5v1c0,.276-.224.5-.5.5s-.5-.224-.5-.5v-1c0-2.481-2.019-4.5-4.5-4.5h-7c-2.481,0-4.5,2.019-4.5,4.5v1c0,.276-.224.5-.5.5s-.5-.224-.5-.5v-1c0-3.033,2.468-5.5,5.5-5.5h7c3.032,0,5.5,2.467,5.5,5.5Zm1-15v3c0,.827-.673,1.5-1.5,1.5h-.536c-.243,1.694-1.704,3-3.464,3H7.5c-1.76,0-3.221-1.306-3.464-3h-.536c-.827,0-1.5-.673-1.5-1.5v-3c0-.827.673-1.5,1.5-1.5h.5v-.5c0-1.93,1.57-3.5,3.5-3.5h4V.5c0-.276.224-.5.5-.5s.5.224.5.5v1.5h4c1.93,0,3.5,1.57,3.5,3.5v.5h.5c.827,0,1.5.673,1.5,1.5ZM3.5,11h.5v-4h-.5c-.275,0-.5.224-.5.5v3c0,.276.225.5.5.5Zm15.5.5v-6c0-1.378-1.121-2.5-2.5-2.5H7.5c-1.379,0-2.5,1.122-2.5,2.5v6c0,1.378,1.121,2.5,2.5,2.5h9c1.379,0,2.5-1.122,2.5-2.5Zm2-4c0-.276-.225-.5-.5-.5h-.5v4h.5c.275,0,.5-.224.5-.5v-3Zm-10.146-.354c-.195-.195-.512-.195-.707,0l-1.146,1.146-1.146-1.146c-.195-.195-.512-.195-.707,0s-.195.512,0,.707l1.146,1.146-1.146,1.146c-.195.195-.195.512,0,.707.098.098.226.146.354.146s.256-.049.354-.146l1.146-1.146,1.146,1.146c.098.098.226.146.354.146s.256-.049.354-.146c.195-.195.195-.512,0-.707l-1.146-1.146,1.146-1.146c.195-.195.195-.512,0-.707Zm6,.039c-.195-.195-.512-.195-.707,0l-1.146,1.146-1.146-1.146c-.195-.195-.512-.195-.707,0s-.195.512,0,.707l1.146,1.146-1.146,1.146c-.195.195-.195.512,0,.707.098.098.226.146.354.146s.256-.049.354-.146l1.146-1.146,1.146,1.146c.098.098.226.146.354.146s.256-.049.354-.146c.195-.195.195-.512,0-.707l-1.146-1.146,1.146-1.146c.195-.195.195-.512,0-.707Z"/>
</svg>
